<svg width="540" height="221" viewBox="0 0 540 221" fill="none" xmlns="http://www.w3.org/2000/svg">
<path d="M171.467 67.3085C164.534 62.7872 156.464 60.5081 147.513 60.5081C143.001 60.5081 138.635 61.2065 134.527 62.6034C130.418 64.0002 126.603 65.9852 123.155 68.4848C120.624 70.3595 118.276 72.4915 116.185 74.844V28.381C116.185 26.2122 115.378 24.1905 113.837 22.5731C112.26 20.8822 110.169 20 107.821 20C105.327 20 103.199 20.8822 101.621 22.5364C100.081 24.1537 99.2737 26.1755 99.2737 28.3442V155.125C99.2737 157.478 100.117 159.536 101.768 161.19C103.382 162.808 105.473 163.69 107.821 163.69C110.169 163.69 112.26 162.808 113.837 161.154C115.378 159.536 116.185 157.441 116.185 155.162V151.523C118.239 153.728 120.55 155.75 123.008 157.514C126.42 159.94 130.271 161.925 134.417 163.396C138.599 164.866 143.074 165.601 147.696 165.601C156.39 165.601 164.387 163.249 171.394 158.617C178.364 154.022 183.94 147.626 187.975 139.65C192.01 131.71 194.065 122.667 194.065 112.816C194.065 102.964 192.01 93.6645 187.975 85.8716C183.903 78.0788 178.364 71.8298 171.467 67.382M119.34 93.885C122.018 88.5183 125.723 84.2543 130.382 81.24C135.004 78.2626 140.433 76.7555 146.596 76.7555C152.759 76.7555 157.968 78.2626 162.517 81.24C167.102 84.2543 170.807 88.5183 173.485 93.885C176.2 99.3253 177.557 105.685 177.557 112.816C177.557 119.947 176.163 126.049 173.448 131.673C170.77 137.26 167.065 141.708 162.443 144.906C157.894 148.067 152.575 149.648 146.596 149.648C140.616 149.648 135.04 148.067 130.418 144.98C125.759 141.855 122.054 137.444 119.34 131.894C116.625 126.269 115.231 119.873 115.231 112.853C115.231 105.832 116.588 99.3621 119.303 93.9218" fill="#44ACE1"/>
<path d="M227.777 61.0594C225.393 61.0594 223.338 61.9417 221.761 63.5958C220.22 65.2132 219.413 67.2349 219.413 69.4037V155.272C219.413 157.478 220.147 159.389 221.577 161.043C223.081 162.734 225.209 163.653 227.74 163.653C229.941 163.653 231.996 162.808 233.61 161.153C235.224 159.536 236.104 157.478 236.104 155.272V69.4404C236.104 67.2717 235.297 65.2499 233.756 63.6326C232.179 61.9784 230.125 61.0962 227.74 61.0962" fill="#404041"/>
<path d="M271.871 20C269.67 20 267.616 20.8455 266.001 22.4996C264.351 24.117 263.507 26.1387 263.507 28.381V155.309C263.507 157.514 264.314 159.499 265.855 161.117C267.432 162.771 269.486 163.653 271.871 163.653C274.072 163.653 276.126 162.808 277.74 161.154C279.354 159.536 280.235 157.478 280.235 155.272V28.381C280.235 26.2122 279.428 24.1905 277.887 22.5731C276.31 20.8822 274.219 20 271.871 20Z" fill="#404041"/>
<path d="M378.951 67.4556C371.467 62.8607 362.883 60.5082 353.456 60.5082C344.028 60.5082 335.627 62.8607 328.071 67.4556C320.55 72.0504 314.534 78.3362 310.132 86.2025C305.767 94.0321 303.529 103.112 303.529 113.147C303.529 123.182 305.73 132.041 310.095 139.944C314.461 147.884 320.514 154.206 328.034 158.728C335.591 163.249 344.101 165.565 353.382 165.565C362.663 165.565 371.357 163.286 378.841 158.728C386.324 154.206 392.304 147.884 396.669 139.981C401.035 132.077 403.272 123.035 403.272 113.183C403.272 103.332 401.071 94.1057 396.669 86.2393C392.304 78.4097 386.288 72.0872 378.841 67.4923M353.346 149.611C347.073 149.611 341.387 148.031 336.471 144.906C331.482 141.745 327.484 137.407 324.586 132.004C321.651 126.6 320.183 120.241 320.183 113.147C320.183 106.052 321.688 99.6562 324.622 94.2159C327.557 88.7756 331.555 84.4381 336.508 81.3504C341.46 78.2626 347.146 76.7188 353.419 76.7188C359.692 76.7188 365.378 78.2626 370.33 81.3504C375.283 84.4381 379.244 88.7389 382.106 94.1792C385.004 99.6562 386.434 106.052 386.434 113.147C386.434 120.241 384.967 126.6 382.106 132.004C379.244 137.407 375.283 141.745 370.294 144.869C365.378 147.994 359.692 149.575 353.419 149.575" fill="#404041"/>
<path d="M517.689 63.6327C516.112 61.9785 514.057 61.0963 511.673 61.0963C509.288 61.0963 507.234 61.9785 505.657 63.6327C504.116 65.2501 503.309 67.3453 503.309 69.6243V75.1014C502.172 73.8884 500.925 72.6753 499.567 71.5358C495.825 68.301 491.387 65.6544 486.434 63.5959C481.409 61.5374 475.906 60.5082 470.11 60.5082C461.049 60.5082 452.795 62.824 445.532 67.3821C438.305 71.9034 432.546 78.2259 428.364 86.1658C424.182 94.0689 422.091 103.075 422.091 112.926C422.091 122.777 424.219 131.967 428.364 139.797C432.546 147.663 438.342 153.986 445.532 158.544C452.759 163.175 461.123 165.491 470.294 165.491C474.512 165.491 478.768 164.866 482.986 163.616C487.205 162.367 491.203 160.492 494.908 158.066C498.027 156.007 500.851 153.471 503.309 150.604V153.067C503.309 162.734 500.521 170.306 494.762 176.261C489.112 182.069 481.005 185.047 470.66 185.047C467.726 185.047 464.864 184.789 462.15 184.238C459.362 183.723 456.941 183.099 454.886 182.4C452.722 181.665 451.071 181.077 450.117 180.783C447.44 179.68 445.422 178.798 444.028 178.136C441.68 177.033 439.443 177.07 437.058 178.798C435.04 180.489 434.674 182.4 434.674 183.65C434.82 189.936 441.277 193.722 443.258 194.751C446.853 196.589 451.181 198.096 456.17 199.272C461.123 200.449 465.965 201.037 470.477 201.037C479.795 201.037 488.269 199.162 495.642 195.413C503.089 191.663 509.068 186.039 513.434 178.798C517.762 171.556 519.963 162.661 519.963 152.368V69.6611C519.963 67.3453 519.156 65.2868 517.616 63.6694M487.975 144.98C483.096 148.031 477.447 149.611 471.174 149.611C464.901 149.611 459.398 148.031 454.483 144.906C449.531 141.782 445.605 137.371 442.817 131.894C439.993 126.343 438.562 119.984 438.562 113C438.562 106.015 439.993 99.693 442.817 94.2159C445.605 88.7756 449.531 84.4749 454.483 81.3871C459.398 78.3362 465.048 76.7555 471.174 76.7555C477.3 76.7555 483.096 78.2626 487.975 81.2769C492.854 84.2911 496.816 88.5551 499.641 93.9586C502.502 99.3989 503.969 105.795 503.969 113C503.969 120.204 502.502 126.674 499.641 132.151C496.779 137.591 492.854 141.929 487.938 145.016" fill="#404041"/>
<path d="M78.1438 44.5181C76.5297 42.9007 74.4754 42.0185 72.2744 42.0185H58.6647V28.3442C58.6647 27.4253 58.4813 26.5431 58.1878 25.6608C58.1511 25.5138 58.1145 25.33 58.0411 25.183C57.6376 24.1905 57.0873 23.3083 56.3536 22.5364C54.8863 20.9925 53.0154 20.147 50.8877 20.0368C50.7043 20.0368 50.5576 20 50.3742 20C50.3742 20 50.044 20.0368 49.8606 20.0368C47.7329 20.147 45.8254 20.9925 44.3947 22.5364C43.661 23.345 43.0741 24.2273 42.6706 25.183C42.6706 25.183 42.5972 25.5506 42.5238 25.6976C42.2304 26.5431 42.047 27.4253 42.047 28.381V42.0185H28.3639C26.1629 42.0185 24.1086 42.8639 22.4945 44.5181C20.8804 46.1355 20 48.1572 20 50.3995C20 52.752 20.8804 54.8473 22.5312 56.4279C24.1453 57.9718 26.1629 58.7805 28.3272 58.7805H41.9369V72.418C41.9369 74.6235 42.7073 76.5717 44.2847 78.2258C45.8621 79.88 47.9164 80.7622 50.3008 80.7622C52.6486 80.7622 54.7395 79.88 56.3169 78.2258C57.8577 76.5717 58.6647 74.6235 58.6647 72.418V58.7805H72.2744C74.4754 58.7805 76.4563 57.9718 78.0704 56.4279C79.7212 54.8473 80.6016 52.7888 80.6016 50.3995C80.6016 48.1939 79.7579 46.1355 78.1071 44.5181" fill="#404041"/>
<path d="M171.467 67.3085C164.534 62.7872 156.463 60.5081 147.513 60.5081C143.001 60.5081 138.635 61.2065 134.527 62.6034C130.418 64.0002 126.603 65.9852 123.155 68.4848C120.623 70.3595 118.276 72.4915 116.185 74.844V28.381C116.185 26.2122 115.378 24.1905 113.837 22.5731C112.259 20.8822 110.169 20 107.821 20C105.326 20 103.199 20.8822 101.621 22.5364C100.08 24.1537 99.2734 26.1755 99.2734 28.3442V155.125C99.2734 157.478 100.117 159.536 101.768 161.19C103.382 162.808 105.473 163.69 107.821 163.69C110.169 163.69 112.259 162.808 113.837 161.154C115.378 159.536 116.185 157.441 116.185 155.162V151.523C118.239 153.728 120.55 155.75 123.008 157.514C126.419 159.94 130.271 161.925 134.417 163.396C138.598 164.866 143.074 165.601 147.696 165.601C156.39 165.601 164.387 163.249 171.394 158.617C178.364 154.022 183.94 147.626 187.975 139.65C192.01 131.71 194.064 122.667 194.064 112.816C194.064 102.964 192.01 93.6645 187.975 85.8716C183.903 78.0788 178.364 71.8298 171.467 67.382M119.339 93.885C122.017 88.5183 125.722 84.2543 130.381 81.24C135.003 78.2626 140.433 76.7555 146.596 76.7555C152.758 76.7555 157.967 78.2626 162.516 81.24C167.102 84.2543 170.807 88.5183 173.485 93.885C176.199 99.3253 177.557 105.685 177.557 112.816C177.557 119.947 176.163 126.049 173.448 131.673C170.77 137.26 167.065 141.708 162.443 144.906C157.894 148.067 152.575 149.648 146.596 149.648C140.616 149.648 135.04 148.067 130.418 144.98C125.759 141.855 122.054 137.444 119.339 131.894C116.625 126.269 115.231 119.873 115.231 112.853C115.231 105.832 116.588 99.3621 119.303 93.9218" fill="#44ACE1"/>
</svg>